<svg width="24" height="24" viewBox="0 0 24 24" fill="none" xmlns="http://www.w3.org/2000/svg">
<g id="arrow-right-contained-02">
<path id="Icon" d="M13.0471 7.70243C12.8703 7.49029 12.555 7.46163 12.3429 7.63841C12.1307 7.8152 12.1021 8.13048 12.2788 8.34262L13.0471 7.70243ZM15.9775 12L16.3616 12.3201C16.5162 12.1347 16.5162 11.8654 16.3616 11.6799L15.9775 12ZM12.2788 15.6574C12.1021 15.8696 12.1307 16.1849 12.3429 16.3616C12.555 16.5384 12.8703 16.5098 13.0471 16.2976L12.2788 15.6574ZM8.02253 11.5C7.74638 11.5 7.52253 11.7239 7.52253 12C7.52253 12.2762 7.74638 12.5 8.02253 12.5L8.02253 11.5ZM12.2788 8.34262L15.5934 12.3201L16.3616 11.6799L13.0471 7.70243L12.2788 8.34262ZM15.5934 11.6799L12.2788 15.6574L13.0471 16.2976L16.3616 12.3201L15.5934 11.6799ZM15.9775 11.5L8.02253 11.5L8.02253 12.5L15.9775 12.5V11.5ZM18.0104 5.98959C21.3299 9.30905 21.3299 14.691 18.0104 18.0104L18.7175 18.7175C22.4275 15.0075 22.4275 8.99247 18.7175 5.28249L18.0104 5.98959ZM18.0104 18.0104C14.691 21.3299 9.30905 21.3299 5.98959 18.0104L5.28249 18.7175C8.99247 22.4275 15.0075 22.4275 18.7175 18.7175L18.0104 18.0104ZM5.98959 18.0104C2.67014 14.691 2.67014 9.30905 5.98959 5.98959L5.28249 5.28249C1.5725 8.99247 1.5725 15.0075 5.28249 18.7175L5.98959 18.0104ZM5.98959 5.98959C9.30905 2.67014 14.691 2.67014 18.0104 5.98959L18.7175 5.28249C15.0075 1.5725 8.99247 1.5725 5.28249 5.28249L5.98959 5.98959Z" fill="#1A2A49"/>
</g>
</svg>
