<svg width="44" height="44" viewBox="0 0 44 44" fill="none" xmlns="http://www.w3.org/2000/svg">
<g id="Component 2">
<g id="eye-closed">
<path id="Icon" d="M30.3984 29.5L15.3984 14.5M20.1984 20.4416C19.825 20.8533 19.5984 21.394 19.5984 21.9863C19.5984 23.2761 20.673 24.3217 21.9984 24.3217C22.6096 24.3217 23.1674 24.0994 23.5911 23.7334M30.4372 24.3217C31.2635 23.0848 31.5984 22.0761 31.5984 22.0761C31.5984 22.0761 29.4138 15.1 21.9984 15.1C21.5821 15.1 21.1823 15.122 20.7984 15.1635M27.3984 27.3494C26.021 28.2281 24.2478 28.8495 21.9984 28.8127C14.6754 28.693 12.3984 22.0761 12.3984 22.0761C12.3984 22.0761 13.4563 18.6981 16.5984 16.6433" stroke="#D9D8D8" stroke-width="2" stroke-linecap="round"/>
</g>
</g>
</svg>
