<svg width="24" height="24" viewBox="0 0 24 24" fill="none" xmlns="http://www.w3.org/2000/svg">
<g id="heart">
<path id="Icon" fill-rule="evenodd" clip-rule="evenodd" d="M3.80772 6.2064C4.70785 5.30654 5.92853 4.80102 7.20132 4.80102C8.47411 4.80102 9.69478 5.30654 10.5949 6.2064L12.0013 7.6116L13.4077 6.2064C13.8505 5.74795 14.3802 5.38228 14.9658 5.13071C15.5514 4.87915 16.1812 4.74674 16.8186 4.7412C17.4559 4.73566 18.088 4.85711 18.6779 5.09846C19.2678 5.3398 19.8037 5.69622 20.2544 6.1469C20.7051 6.59759 21.0615 7.13352 21.3029 7.72342C21.5442 8.31332 21.6657 8.94538 21.6601 9.58273C21.6546 10.2201 21.5222 10.8499 21.2706 11.4355C21.019 12.0212 20.6534 12.5508 20.1949 12.9936L12.0013 21.1884L3.80772 12.9936C2.90786 12.0935 2.40234 10.8728 2.40234 9.6C2.40234 8.32721 2.90786 7.10653 3.80772 6.2064V6.2064Z" stroke="#F3F2F1" stroke-linejoin="round"/>
</g>
</svg>
