<svg width="24" height="24" viewBox="0 0 24 24" fill="none" xmlns="http://www.w3.org/2000/svg">
<g id="heart">
<path id="Icon" fill-rule="evenodd" clip-rule="evenodd" d="M3.80772 6.20641C4.70785 5.30655 5.92853 4.80104 7.20132 4.80104C8.47411 4.80104 9.69478 5.30655 10.5949 6.20641L12.0013 7.61161L13.4077 6.20641C13.8505 5.74796 14.3802 5.38229 14.9658 5.13072C15.5514 4.87916 16.1812 4.74675 16.8186 4.74121C17.4559 4.73567 18.088 4.85712 18.6779 5.09847C19.2678 5.33982 19.8037 5.69623 20.2544 6.14691C20.7051 6.5976 21.0615 7.13353 21.3029 7.72343C21.5442 8.31333 21.6657 8.9454 21.6601 9.58274C21.6546 10.2201 21.5222 10.8499 21.2706 11.4356C21.019 12.0212 20.6534 12.5508 20.1949 12.9936L12.0013 21.1884L3.80772 12.9936C2.90786 12.0935 2.40234 10.8728 2.40234 9.60001C2.40234 8.32722 2.90786 7.10654 3.80772 6.20641V6.20641Z" stroke="#334E73" stroke-linejoin="round"/>
</g>
</svg>
