<svg width="24" height="24" viewBox="0 0 24 24" fill="none" xmlns="http://www.w3.org/2000/svg">
<g id="lock-01">
<path id="Icon" d="M6.60078 8.80002V7.88574C6.60078 4.84683 9.00935 2.40002 12.0008 2.40002C14.9922 2.40002 17.4008 4.84683 17.4008 7.88574V8.80002M6.60078 8.80002C5.61078 8.80002 4.80078 9.62288 4.80078 10.6286V19.7714C4.80078 20.7772 5.61078 21.6 6.60078 21.6H17.4008C18.3908 21.6 19.2008 20.7772 19.2008 19.7714V10.6286C19.2008 9.62288 18.3908 8.80002 17.4008 8.80002M6.60078 8.80002H17.4008M12.0008 13.3715C12.9908 13.3715 13.8008 14.1943 13.8008 15.2C13.8008 16.2057 12.9908 17.0286 12.0008 17.0286C11.0108 17.0286 10.2008 16.2057 10.2008 15.2C10.2008 14.1943 11.0108 13.3715 12.0008 13.3715Z" stroke="#D9D8D8"/>
</g>
</svg>
