<svg width="24" height="24" viewBox="0 0 24 24" fill="none" xmlns="http://www.w3.org/2000/svg">
<g id="phone-call-01">
<path id="Icon" d="M12.8695 6.32593C14.0694 6.52703 15.1594 7.09375 16.0295 7.96212C16.8996 8.83048 17.4629 9.91822 17.669 11.1156M13.0527 2.4C15.1869 2.76106 17.1332 3.7711 18.6812 5.31131C20.2291 6.85608 21.2366 8.79848 21.5984 10.9283M19.9314 19.4017C19.9314 19.4017 18.7727 20.5397 18.4888 20.8733C18.0262 21.3669 17.4813 21.6 16.7668 21.6C16.6981 21.6 16.6248 21.6 16.5562 21.5954C15.196 21.5086 13.932 20.9784 12.984 20.526C10.3919 19.2737 8.11577 17.4958 6.22436 15.2427C4.66268 13.3642 3.61851 11.6275 2.92698 9.76282C2.50106 8.6248 2.34535 7.73816 2.41405 6.90178C2.45985 6.36705 2.66593 5.92373 3.04605 5.54439L4.60772 3.98591C4.83213 3.77567 5.07027 3.66141 5.30384 3.66141C5.59236 3.66141 5.82592 3.83509 5.97247 3.98134C5.97705 3.98591 5.98163 3.99048 5.98621 3.99505C6.26557 4.25556 6.5312 4.52521 6.81056 4.81314C6.95253 4.95939 7.09908 5.10564 7.24563 5.25646L8.49589 6.50416C8.98133 6.98862 8.98133 7.43651 8.49589 7.92097C8.36308 8.05351 8.23484 8.18605 8.10203 8.31402C7.71734 8.70707 8.01954 8.40548 7.6211 8.76197C7.61194 8.77111 7.60279 8.77568 7.59821 8.78482C7.20435 9.17787 7.27763 9.56178 7.36006 9.82229C7.36464 9.836 7.36922 9.84971 7.3738 9.86342C7.69896 10.6495 8.15693 11.3899 8.85304 12.272L8.85762 12.2766C10.1216 13.8305 11.4543 15.0416 12.9244 15.9694C13.1122 16.0882 13.3045 16.1842 13.4877 16.2756C13.6526 16.3579 13.8083 16.4356 13.9411 16.5178C13.9594 16.527 13.9777 16.5407 13.996 16.5498C14.1518 16.6275 14.2983 16.6641 14.4494 16.6641C14.8295 16.6641 15.0677 16.4264 15.1455 16.3487L16.0432 15.4529C16.1989 15.2975 16.4462 15.1101 16.7348 15.1101C17.0187 15.1101 17.2523 15.2884 17.3942 15.4437C17.3988 15.4483 17.3988 15.4483 17.4034 15.4529L19.9268 17.9711C20.3985 18.4373 19.9314 19.4017 19.9314 19.4017Z" stroke="#F3F2F1" stroke-linecap="round" stroke-linejoin="round"/>
</g>
</svg>
