<svg width="14" height="14" viewBox="0 0 14 14" fill="none" xmlns="http://www.w3.org/2000/svg">
<path id="Vector" d="M14 8.01107V6.01711C13.2114 6.01619 12.4307 5.85972 11.7027 5.55665C10.9747 5.25359 10.3136 4.80989 9.75727 4.25097C9.20096 3.69204 8.76038 3.02887 8.46073 2.29943C8.16109 1.56998 8.00829 0.788587 8.01107 0H6.01711C6.0199 0.790961 5.86617 1.57466 5.56477 2.30595C5.26337 3.03724 4.82026 3.70167 4.26097 4.26097C3.70167 4.82026 3.03724 5.26337 2.30595 5.56477C1.57466 5.86617 0.790961 6.0199 0 6.01711V8.01107C1.58901 8.01107 3.11304 8.64182 4.2373 9.76476C5.36157 10.8877 5.99411 12.411 5.99597 14H7.98993C7.99085 13.212 8.14709 12.4319 8.44971 11.7043C8.75234 10.9768 9.19541 10.316 9.75358 9.75977C10.3118 9.20356 10.9741 8.76282 11.7027 8.46277C12.4314 8.16271 13.212 8.00922 14 8.01107Z" fill="#1A2A49"/>
</svg>
